<?xml version="1.0"?>
<svg xmlns="http://www.w3.org/2000/svg" width="232.768" height="187.871" viewBox="0 0 232.768 187.871">
  <g id="Group_244" transform="translate(-824.334 -234.752)">
    <g id="blob-shape" transform="translate(824.334 234.752)">
      <path id="Path_267" d="M-40.89-150.764c20.338,9.29,30.582,39.722,28.021,67.593S-30.746-29.941-51.084-8.95s-45.7,37.713-67.794,34.5c-22.146-3.214-41.078-26.264-64.63-47.255-23.5-21.041-51.573-39.973-59.407-66.739-7.834-26.716,4.67-61.316,28.172-70.606s58.1,6.729,90.592,8.788S-61.228-160.054-40.89-150.764Z" transform="translate(245.249 161.925)" fill="#2c303d"/>
    </g>
    <g id="Mail_Icons_-_Free_Download_PNG_and_SVG-26_1_" transform="translate(884.318 256.708)">
      <path id="Path_292" d="M107.429,42.609,55.123,12,3,42.609v5.4L55.215,71.417,107.429,48.01Z" transform="translate(0.801 6.404)" fill="#acb7d0"/>
      <path id="Path_293" d="M29.634,4.941H76.018a5.4,5.4,0,0,1,5.4,5.4V60.757l-34.3,16.2L13,60.757V21.575a5.4,5.4,0,0,1,1.582-3.819L25.822,6.524A5.394,5.394,0,0,1,29.634,4.941Z" transform="translate(8.806 0.754)" fill="#e6e8fa"/>
      <path id="Path_300" d="M31.005,4.941V22.946H13Z" transform="translate(8.806 0.754)" fill="#d1d8ff"/>
      <path id="Path_301" d="M103.916,81.132H6.492a3.6,3.6,0,0,1-3.6-3.6V31.871L55.3,55.278l52.215-23.407v45.66A3.6,3.6,0,0,1,103.916,81.132Z" transform="translate(0.713 22.311)" fill="#e6e8fa"/>
      <path id="Path_302" d="M10.093,52h90.222a7.2,7.2,0,0,1,7.2,7.2v2.215a3.6,3.6,0,0,1-3.6,3.6H6.492a3.6,3.6,0,0,1-3.6-3.6V59.2A7.2,7.2,0,0,1,10.093,52Z" transform="translate(0.713 38.424)" fill="#d1d8ff"/>
      <path id="Path_303" d="M107.4,46.417,92.025,37.183V9.4a5.4,5.4,0,0,0-5.4-5.4H41a8.976,8.976,0,0,0-6.372,2.63L22.635,18.622a8.976,8.976,0,0,0-2.63,6.372V37.2L4.63,46.417A5.4,5.4,0,0,0,2,51.045V99.427a5.4,5.4,0,0,0,5.4,5.4h97.227a5.4,5.4,0,0,0,5.4-5.4V51.045A5.4,5.4,0,0,0,107.4,46.417ZM37.18,9.183a5.489,5.489,0,0,1,.83-.682V20.2a1.8,1.8,0,0,1-1.8,1.8h-11.7a5.489,5.489,0,0,1,.682-.83l2.389-2.389ZM6.572,49.519,20.005,41.4V52.614a1.8,1.8,0,1,0,3.6,0V25.606h12.6a5.4,5.4,0,0,0,5.4-5.4V7.6H86.624a1.8,1.8,0,0,1,1.8,1.8V52.614a1.8,1.8,0,1,0,3.6,0V41.4l13.525,8.123a1.8,1.8,0,0,1,.879,1.547v2.194L58.23,74.867a5.413,5.413,0,0,1-4.41,0L5.6,53.247v-2.2A1.809,1.809,0,0,1,6.48,49.5Zm98.057,51.708H7.4a1.8,1.8,0,0,1-1.8-1.8V57.185L52.414,78.144a9.017,9.017,0,0,0,7.364,0l46.651-20.959V99.427A1.8,1.8,0,0,1,104.629,101.227Z" transform="translate(0 0)" fill="#9ea7d9"/>
      <path id="Path_304" d="M12.8,50A1.8,1.8,0,0,0,11,51.8v3.6a1.8,1.8,0,1,0,3.6,0V51.8A1.8,1.8,0,0,0,12.8,50Z" transform="translate(7.205 36.823)" fill="#a8b1e6"/>
      <path id="Path_305" d="M7.8,50A1.8,1.8,0,0,0,6,51.8v3.6a1.8,1.8,0,1,0,3.6,0V51.8A1.8,1.8,0,0,0,7.8,50Z" transform="translate(3.202 36.823)" fill="#a8b1e6"/>
      <path id="Path_306" d="M17.8,50A1.8,1.8,0,0,0,16,51.8v3.6a1.8,1.8,0,1,0,3.6,0V51.8A1.8,1.8,0,0,0,17.8,50Z" transform="translate(11.207 36.823)" fill="#a8b1e6"/>
      <path id="Path_307" d="M22.8,50A1.8,1.8,0,0,0,21,51.8v3.6a1.8,1.8,0,1,0,3.6,0V51.8A1.8,1.8,0,0,0,22.8,50Z" transform="translate(15.21 36.823)" fill="#a8b1e6"/>
      <path id="Path_308" d="M27.8,50A1.8,1.8,0,0,0,26,51.8v3.6a1.8,1.8,0,1,0,3.6,0V51.8A1.8,1.8,0,0,0,27.8,50Z" transform="translate(19.212 36.823)" fill="#a8b1e6"/>
      <path id="Path_309" d="M32.8,50A1.8,1.8,0,0,0,31,51.8v3.6a1.8,1.8,0,1,0,3.6,0V51.8A1.8,1.8,0,0,0,32.8,50Z" transform="translate(23.215 36.823)" fill="#a8b1e6"/>
      <path id="Path_310" d="M37.8,50A1.8,1.8,0,0,0,36,51.8v3.6a1.8,1.8,0,1,0,3.6,0V51.8A1.8,1.8,0,0,0,37.8,50Z" transform="translate(27.217 36.823)" fill="#a8b1e6"/>
      <path id="Path_311" d="M42.8,50A1.8,1.8,0,0,0,41,51.8v3.6a1.8,1.8,0,1,0,3.6,0V51.8A1.8,1.8,0,0,0,42.8,50Z" transform="translate(31.22 36.823)" fill="#a8b1e6"/>
      <path id="Path_312" d="M47.8,50A1.8,1.8,0,0,0,46,51.8v3.6a1.8,1.8,0,1,0,3.6,0V51.8A1.8,1.8,0,0,0,47.8,50Z" transform="translate(35.222 36.823)" fill="#a8b1e6"/>
      <path id="Path_313" d="M52.8,50A1.8,1.8,0,0,0,51,51.8v3.6a1.8,1.8,0,1,0,3.6,0V51.8A1.8,1.8,0,0,0,52.8,50Z" transform="translate(39.225 36.823)" fill="#a8b1e6"/>
      <path id="Path_314" d="M57.8,50A1.8,1.8,0,0,0,56,51.8v3.6a1.8,1.8,0,1,0,3.6,0V51.8A1.8,1.8,0,0,0,57.8,50Z" transform="translate(43.227 36.823)" fill="#a8b1e6"/>
      <path id="Path_315" d="M36.6,52.01h10.8a1.8,1.8,0,0,0,0-3.6H36.6a9,9,0,0,1-9-9V28.6a9,9,0,0,1,9-9h3.6a9,9,0,0,1,9,9v10.8a1.8,1.8,0,1,1-3.6,0v-9a7.2,7.2,0,1,0-14.4,0v7.2a7.206,7.206,0,0,0,12.083,5.261,5.4,5.4,0,0,0,9.523-3.46V28.6A12.6,12.6,0,0,0,40.2,16H36.6A12.6,12.6,0,0,0,24,28.6v10.8A12.6,12.6,0,0,0,36.6,52.01Zm1.8-10.8a3.6,3.6,0,0,1-3.6-3.6V30.4a3.6,3.6,0,0,1,7.2,0v7.2A3.6,3.6,0,0,1,38.4,41.207Z" transform="translate(17.611 9.606)" fill="#9ea7d9"/>
    </g>
  </g>
</svg>
